<svg role="img" viewBox="0 0 24 24" fill="#E1C542" xmlns="http://www.w3.org/2000/svg">
  <title>Express</title>
  <path d="M15.644 13.421c-.119-.18-.238-.359-.357-.538-.12.18-.239.358-.357.538l-.604.915H13.5l.961-1.39-.908-1.309h1.025l.316.51c.11.178.22.355.329.533.104-.174.211-.349.317-.524l.317-.519h1.02l-.908 1.309.962 1.39h-1.026l-.604-.915zm-3.637-1.948c-.564 0-.918.326-.918.889v1.456c0 .6.36.891.964.891.598 0 .92-.297.92-.891V12.36c0-.59-.358-.888-.966-.888zm.531 2.368c0 .226-.103.347-.302.347s-.301-.12-.301-.347v-1.42c0-.222.103-.346.301-.346.2 0 .302.124.302.346v1.42zM24 2.5v19a2.5 2.5 0 0 1-2.5 2.5h-19A2.5 2.5 0 0 1 0 21.5v-19A2.5 2.5 0 0 1 2.5 0h19A2.5 2.5 0 0 1 24 2.5zM8.79 17.155l-1.62-2.524c-.183.22-.366.443-.554.667v1.857H4.82V6.678h1.815v4.985c.35-.43.693-.867 1.026-1.31.202-.263.403-.53.605-.798h1.988l-2.392 2.882L11.09 17.155H8.79zm8.444-3.23a2.78 2.78 0 0 0-.267-.389 1.64 1.64 0 0 0-.339-.326c-.135-.099-.272-.192-.41-.278a3.803 3.803 0 0 0 .68-.486c.188-.155.35-.336.48-.54.134-.208.24-.434.316-.668.075-.239.114-.49.114-.743 0-.476-.094-.888-.28-1.233a2.14 2.14 0 0 0-.787-.83c-.344-.2-.766-.302-1.257-.302h-3.663v8.848h3.78c.49 0 .91-.09 1.257-.267a2.043 2.043 0 0 0 .797-.732c.19-.317.285-.687.285-1.11 0-.346-.048-.658-.143-.934zm-5.56-.245h1.532c.255 0 .443.058.566.17.128.108.192.268.192.48 0 .226-.07.396-.209.51-.135.108-.336.164-.598.164H11.67v-1.324zm2.005-2.267c.193 0 .345.05.456.151.108.096.162.24.162.432 0 .19-.057.331-.172.427-.115.096-.29.143-.524.143H11.67V11.413h2.005zM23.5 2.5c0-.826-.674-1.5-1.5-1.5h-19c-.826 0-1.5.674-1.5 1.5v19c0 .826.674 1.5 1.5 1.5h19c.826 0 1.5-.674 1.5-1.5v-19zM17.14 14.3c0 .192-.07.346-.209.459-.138.115-.336.172-.593.172h-1.56v-1.26h1.532c.257 0 .455.057.593.172.14.115.21.268.21.459zm-.266-2.143c0 .18-.065.33-.194.448-.129.118-.31.177-.544.177h-1.401v-1.15h1.38c.235 0 .419.06.548.178.13.119.21.27.21.448z"/>
</svg>
